# xmcd CD database file
# 
# Track frame offsets:
# 187
# 8192
# 15800
# 29262
# 33580
# 40252
# 50095
# 76795
# 82962
# 86272
# 96810
# 103292
# 115960
# 117952
# 124735
# 128350
# 231095
# 236042
# 
# Disc length: 3204 seconds
#
# 
# Revision: 0
# Processed by: cddbd v1.4b41PL1 Copyright (c) Steve Scherf et al.
# Submitted via: SuperSonic v3.0
# 
DISCID=d20c8212
DTITLE=Riders in the Sky - Riders Radio Theater
DYEAR=1900
DGENRE=
TTITLE0=The Scene
TTITLE1=Riders Radio Theme
TTITLE2=Chant Of The Wanderer
TTITLE3=Udder Butter On A Rope
TTITLE4=Trail Traffic Report
TTITLE5=Sagebrush Sports Report
TTITLE6=Cattle Call
TTITLE7=Bio Feedbag
TTITLE8=Trail Traffic Update
TTITLE9=Call of the Wild
TTITLE10=Triple X Stock Report
TTITLE11=Sundown Blues
TTITLE12=Riders Radio Theme (Reprise)
TTITLE13=Pops
TTITLE14=Saddle Whiz
TTITLE15=Meltdown On The Mesa
TTITLE16=So Long Saddle Pals
TTITLE17=The Long Shot
EXTD=
EXTT0=
EXTT1=
EXTT2=
EXTT3=
EXTT4=
EXTT5=
EXTT6=
EXTT7=
EXTT8=
EXTT9=
EXTT10=
EXTT11=
EXTT12=
EXTT13=
EXTT14=
EXTT15=
EXTT16=
EXTT17=
PLAYORDER=
